<svg data-v-0dd9719b="" version="1.0" xmlns="http://www.w3.org/2000/svg" xmlns:xlink="http://www.w3.org/1999/xlink" width="100%" height="100%" viewBox="0 0 340.000000 250.000000" preserveAspectRatio="xMidYMid meet" color-interpolation-filters="sRGB" style="margin: auto;"> <rect data-v-0dd9719b="" x="0" y="0" width="100%" height="100%" fill="#fff" fill-opacity="1" class="background"></rect> <rect data-v-0dd9719b="" x="0" y="0" width="100%" height="100%" fill="url(#watermark)" fill-opacity="1" class="watermarklayer"></rect> <g data-v-0dd9719b="" fill="#009ebd" class="icon-text-wrapper icon-svg-group iconsvg" transform="translate(49.589996337890625,98.41109275817871)"><g class="iconsvg-imagesvg" transform="translate(0,0)"><g><rect fill="#009ebd" fill-opacity="0" stroke-width="2" x="0" y="0" width="60" height="53.177817759618534" class="image-rect"></rect> <svg x="0" y="0" width="60" height="53.177817759618534" filtersec="colorsb6017805204" class="image-svg-svg primary" style="overflow: visible;"><svg xmlns="http://www.w3.org/2000/svg" viewBox="0.00418471684679389 0.004889938980340958 47.54616928100586 42.13999938964844"><title>资源 3</title><g id="图层_2" data-name="图层 2"><g id="Layer_1" data-name="Layer 1"><path d="M2.18,17.44a7.14,7.14,0,0,0,1.25,4.42c1.45,2,4,3,7.52,3.06h.56a27.75,27.75,0,0,0,14.26-3.6l1-.46-3.1-2.37,12.14-.68L30.1,28.41l-.88-4-.87.71c-6.67,5.12-14.8,8.56-20.24,8.56A7.5,7.5,0,0,1,4.73,33a9,9,0,0,1-4.72-8A12.91,12.91,0,0,1,2.18,17.44Z" fill="#f16821" fill-rule="evenodd"></path><path d="M5.67,18.11c-.19,1.65,2.6,4,7.19,4.06a26.73,26.73,0,0,0,10.31-2.06l-3.31-2.34c-.88-.63-.72-1.18.36-1.23l16.92-.76c1.08,0,1.55.69,1,1.64l-7.76,14.9c-.5,1-1.07.88-1.27-.18l-.88-4.52c-5.6,4-12,6.91-17.21,7.77a21.07,21.07,0,1,0-5.4-17.28Z" fill="#009ebd" fill-rule="evenodd"></path></g></g></svg></svg> <!----></g></g> <g transform="translate(67,9.80390739440918)"><g data-gra="path-name" fill-rule="" class="tp-name iconsvg-namesvg"><g transform="scale(1)"><g><path d="M22.78-6.79L22.78-6.79Q22.78-4.19 21.69-2.24 20.59-0.28 18.57 0.77 16.56 1.83 13.96 1.83L13.96 1.83 3.25 1.83 3.25-29.58 13.39-29.58Q15.71-29.58 17.54-28.58 19.37-27.59 20.38-25.82 21.4-24.05 21.4-21.73L21.4-21.73Q21.4-19.12 20.1-17.33 18.8-15.54 16.52-14.81L16.52-14.81Q19.37-14.12 21.08-12.02 22.78-9.93 22.78-6.79ZM13.51-27.83L5.05-27.83 5.05-15.58 13.51-15.58Q16.36-15.58 17.98-17.25 19.61-18.92 19.61-21.69L19.61-21.69Q19.61-24.58 17.92-26.2 16.23-27.83 13.51-27.83L13.51-27.83ZM20.99-6.84L20.99-6.84Q20.99-10.05 19.12-11.94 17.25-13.83 14-13.83L14-13.83 5.05-13.83 5.05 0.08 14 0.08Q17.25 0.08 19.12-1.79 20.99-3.66 20.99-6.84ZM45.33-9.81L45.33-9.52 28.85-9.52Q28.85-4.8 31.04-2.1 33.24 0.61 37.07 0.61L37.07 0.61Q39.59 0.61 41.03-0.41 42.48-1.42 43.45-3.87L43.45-3.87 44.92-3.17Q43.98-0.41 42.03 0.92 40.08 2.24 37.03 2.24L37.03 2.24Q34.06 2.24 31.8 0.81 29.54-0.61 28.3-3.28 27.06-5.94 27.06-9.52L27.06-9.52Q27.06-13.02 28.24-15.68 29.42-18.35 31.51-19.83 33.61-21.32 36.29-21.32L36.29-21.32Q40.52-21.32 42.92-18.23 45.33-15.14 45.33-9.81L45.33-9.81ZM28.93-11.15L28.93-11.15 43.58-11.15Q43.25-15.26 41.38-17.48 39.51-19.69 36.29-19.69L36.29-19.69Q33.28-19.69 31.29-17.37 29.29-15.05 28.93-11.15ZM60.66-19.29L54.68-19.29 54.68-2.64Q54.68-1.02 55.62-0.18 56.56 0.65 58.18 0.65L58.18 0.65Q59.36 0.65 60.66 0.33L60.66 0.33 60.66 1.87Q59.73 2.24 58.14 2.24L58.14 2.24Q55.78 2.24 54.36 0.94 52.93-0.37 52.93-2.69L52.93-2.69 52.93-19.29 48.99-19.29 48.99-20.91 52.93-20.91 52.93-26.93 54.68-26.93 54.68-20.91 60.66-20.91 60.66-19.29ZM82.96-15.46L82.96-3.62Q82.96-0.2 83.08 1.83L83.08 1.83 81.58 1.83Q81.42 0.41 81.33-3.58L81.33-3.58Q80.32-0.81 78.32 0.71 76.33 2.24 73.56 2.24L73.56 2.24Q70.88 2.24 68.82 0.75 66.77-0.73 65.63-3.4 64.49-6.06 64.49-9.52L64.49-9.52Q64.49-12.98 65.63-15.66 66.77-18.35 68.82-19.83 70.88-21.32 73.56-21.32L73.56-21.32Q76.33-21.32 78.32-19.77 80.32-18.23 81.33-15.5L81.33-15.5Q81.42-19.49 81.58-20.91L81.58-20.91 83.08-20.91Q82.96-18.92 82.96-15.46L82.96-15.46ZM81.29-9.52L81.29-9.52Q81.29-12.53 80.34-14.85 79.38-17.17 77.67-18.43 75.96-19.69 73.77-19.69L73.77-19.69Q71.57-19.69 69.88-18.41 68.19-17.13 67.24-14.83 66.28-12.53 66.28-9.52L66.28-9.52Q66.28-6.55 67.24-4.25 68.19-1.95 69.9-0.67 71.61 0.61 73.77 0.61L73.77 0.61Q75.96 0.61 77.67-0.67 79.38-1.95 80.34-4.25 81.29-6.55 81.29-9.52ZM93.17-25.14L93.17-25.14 93.17-20.91 99.2-20.91 99.2-19.29 93.17-19.29 93.17 1.83 91.42 1.83 91.42-19.29 87.52-19.29 87.52-20.91 91.42-20.91 91.42-25.31Q91.42-28.16 93.03-29.74 94.64-31.33 97.45-31.33L97.45-31.33Q99.32-31.33 100.29-30.76L100.29-30.76 100.29-29.25Q99.07-29.74 97.53-29.74L97.53-29.74Q93.17-29.74 93.17-25.14ZM112.62-21.32L113.27-21.28 113.27-19.57Q112.99-19.61 112.3-19.61L112.3-19.61Q109.29-19.61 107.45-17.39 105.62-15.18 105.62-11.64L105.62-11.64 105.62 1.83 103.92 1.83 103.92-15.46Q103.92-18.92 103.79-20.91L103.79-20.91 105.26-20.91Q105.38-19.73 105.46-16.56L105.46-16.56Q106.4-18.84 108.23-20.08 110.06-21.32 112.62-21.32L112.62-21.32ZM135.37-9.81L135.37-9.52 118.89-9.52Q118.89-4.8 121.08-2.1 123.28 0.61 127.11 0.61L127.11 0.61Q129.63 0.61 131.07-0.41 132.52-1.42 133.49-3.87L133.49-3.87 134.96-3.17Q134.02-0.41 132.07 0.92 130.12 2.24 127.07 2.24L127.07 2.24Q124.1 2.24 121.84 0.81 119.58-0.61 118.34-3.28 117.1-5.94 117.1-9.52L117.1-9.52Q117.1-13.02 118.28-15.68 119.46-18.35 121.55-19.83 123.65-21.32 126.33-21.32L126.33-21.32Q130.57-21.32 132.97-18.23 135.37-15.14 135.37-9.81L135.37-9.81ZM118.97-11.15L118.97-11.15 133.62-11.15Q133.29-15.26 131.42-17.48 129.55-19.69 126.33-19.69L126.33-19.69Q123.32-19.69 121.33-17.37 119.34-15.05 118.97-11.15ZM140.29-15.42L140.29-15.42Q140.29-18.02 142.2-19.67 144.11-21.32 147.12-21.32L147.12-21.32Q149.81-21.32 151.62-20.12 153.43-18.92 153.8-16.84L153.8-16.84 152.29-16.15Q151.84-18.02 150.62-18.86 149.4-19.69 147.12-19.69L147.12-19.69Q144.76-19.69 143.42-18.57 142.08-17.45 142.08-15.42L142.08-15.42Q142.08-13.59 143.3-12.65 144.52-11.72 147.61-11.15L147.61-11.15Q151.27-10.5 152.94-8.83 154.61-7.16 154.61-4.23L154.61-4.23Q154.61-1.34 152.56 0.45 150.5 2.24 147.21 2.24L147.21 2.24Q144.03 2.24 142 0.83 139.96-0.57 139.31-3.17L139.31-3.17 140.82-3.82Q141.47-1.51 143.02-0.45 144.56 0.61 147.21 0.61L147.21 0.61Q149.77 0.61 151.32-0.71 152.86-2.03 152.86-4.23L152.86-4.23Q152.86-6.51 151.58-7.67 150.3-8.83 147.17-9.44L147.17-9.44Q143.58-10.13 141.94-11.58 140.29-13.02 140.29-15.42ZM177.07-13.43L177.07-13.43 177.07 1.83 175.4 1.83 175.4-13.18Q175.4-16.52 173.9-18.11 172.39-19.69 169.22-19.69L169.22-19.69Q166.94-19.69 165.15-18.55 163.36-17.41 162.36-15.34 161.37-13.26 161.37-10.62L161.37-10.62 161.37 1.83 159.62 1.83 159.62-30.92 161.37-30.92 161.37-16.11Q162.5-18.72 164.56-20.02 166.61-21.32 169.54-21.32L169.54-21.32Q173.12-21.32 175.1-19.25 177.07-17.17 177.07-13.43Z" transform="translate(-3.25, 31.329999923706055)"></path></g> <!----> <!----> <!----> <!----> <!----> <!----> <!----></g></g> <!----></g></g><defs v-gra="od"></defs></svg>